M48
; DRILL file {KiCad 9.0.2} date 2025-11-09T02:50:05-0600
; FORMAT={-:-/ absolute / metric / decimal}
; #@! TF.CreationDate,2025-11-09T02:50:05-06:00
; #@! TF.GenerationSoftware,Kicad,Pcbnew,9.0.2
; #@! TF.FileFunction,Plated,1,2,PTH
FMAT,2
METRIC
; #@! TA.AperFunction,Plated,PTH,ViaDrill
T1C0.300
; #@! TA.AperFunction,Plated,PTH,ComponentDrill
T2C1.000
%
G90
G05
T1
X103.12Y-114.7
X106.1Y-111.6
X106.1Y-112.6
X106.5Y-116.1
X109.7Y-116.1
X110.2Y-109.7
X110.2Y-111.4
X110.2Y-112.7
X110.8Y-115.1
X112.3Y-109.4
X113.7Y-114.9
X113.7Y-116.2
X124.36Y-113.1
X125.5Y-107.5
X126.6Y-109.7
X127.425Y-109.7
X128.5Y-115.7
X129.2Y-107.2
X129.5Y-108.8
X132.0Y-111.8
T2
X103.12Y-105.1
X103.12Y-119.6
X105.66Y-105.1
X105.66Y-119.6
X108.2Y-105.1
X108.2Y-119.6
X110.74Y-105.1
X110.74Y-119.6
X113.28Y-105.1
X113.28Y-119.6
X121.82Y-105.1
X121.82Y-119.6
X124.36Y-105.1
X124.36Y-119.6
X126.9Y-105.1
X126.9Y-119.6
X129.44Y-105.1
X129.44Y-119.6
X131.98Y-105.1
X131.98Y-119.6
M30
